<?xml version="1.0" encoding="UTF-8"?>
<svg version="1.1" xmlns="http://www.w3.org/2000/svg" width="1076" height="967">
<path d="M0 0 C1.39782221 0.00067579 2.79564556 0.00003033 4.19346672 -0.00180733 C8.00246485 -0.00299815 11.81117387 0.01452355 15.62010658 0.03535604 C19.74097301 0.0545793 23.86185338 0.05624326 27.98275757 0.06022644 C36.0454768 0.0708477 44.10806145 0.0977935 52.17071759 0.13065477 C58.73155046 0.15708865 65.29237695 0.17752026 71.85324287 0.19372177 C72.78917664 0.19603743 73.7251104 0.1983531 74.68940579 0.20073893 C76.59120699 0.20541748 78.49300822 0.21008183 80.39480949 0.21473216 C98.21323651 0.25899352 116.03156145 0.32175605 133.84990675 0.39093862 C149.10052579 0.44972954 164.35112327 0.49294692 179.6018219 0.52462769 C197.34510092 0.56149483 215.08831205 0.60799156 232.83152348 0.66967762 C234.72884909 0.6762492 236.62617475 0.68280929 238.52350044 0.68935776 C239.45680313 0.69258469 240.39010581 0.69581163 241.35169039 0.69913635 C247.89124736 0.72110249 254.43079966 0.73633871 260.97038078 0.74890518 C268.95995339 0.76445055 276.94940926 0.79070266 284.93890106 0.83011313 C289.00632165 0.84992111 293.07361519 0.86528971 297.14108658 0.86762047 C318.91468788 0.88449239 339.75809143 2.09672943 360.9155426 7.59298706 C362.1022052 7.89817261 363.2888678 8.20335815 364.51148987 8.51779175 C410.74850217 20.71065386 451.51638152 49.4356322 476.1030426 90.84298706 C492.49054717 119.30722034 501.55098901 151.51777158 502.7905426 184.34298706 C502.82228577 185.07082397 502.85402893 185.79866089 502.88673401 186.54855347 C503.45901761 201.3893067 501.80284828 216.15441437 498.7280426 230.65548706 C495.12263638 245.3765534 495.12263638 245.3765534 497.2280426 259.90548706 C500.15413776 264.11992206 503.05928035 267.19363501 507.7905426 269.34298706 C513.7322288 270.23604928 519.62494461 270.13468841 525.62149048 270.07556152 C527.46149751 270.07944607 529.30150053 270.08597592 531.14148992 270.09491861 C536.19122516 270.11189081 541.24022847 270.09160768 546.28989828 270.06528759 C551.7386465 270.0434725 557.18732391 270.05636715 562.63609314 270.06520081 C572.07763954 270.07593091 581.51896482 270.06518638 590.96048164 270.04030228 C604.62762317 270.00466452 618.29457201 270.00591632 631.96174663 270.01690011 C654.15755295 270.03410821 676.35329143 270.02757416 698.54908752 270.00314331 C699.21305773 270.0024178 699.87702794 270.00169229 700.56111846 270.00094479 C705.94017702 269.99506579 711.31923552 269.98913603 716.69829393 269.98312363 C732.17199321 269.96585773 747.64569433 269.95340608 763.11940002 269.943573 C764.11321727 269.94293197 764.11321727 269.94293197 765.12711164 269.94227798 C787.90036463 269.92770703 810.67359309 269.92929673 833.4468469 269.94162214 C847.07472487 269.94809707 860.70243546 269.93927146 874.3302856 269.91053759 C883.67421263 269.89161099 893.01807994 269.88653502 902.3620242 269.89223053 C907.74920593 269.89496675 913.13617352 269.89110118 918.52331734 269.86953926 C923.46267142 269.8498525 928.40167849 269.84880411 933.3410508 269.86204736 C935.12034781 269.86356779 936.89966696 269.8584023 938.67891837 269.84557219 C954.27754473 269.73937536 969.65324208 271.26247077 981.8139801 282.15548706 C986.39885179 286.9531587 988.78107541 292.07344941 990.7905426 298.34298706 C991.0277301 299.02361206 991.2649176 299.70423706 991.5092926 300.40548706 C994.68921141 310.78206421 990.68270108 322.38626622 988.5092926 332.68673706 C988.17583014 334.28578397 987.84280674 335.88492248 987.51019287 337.48414612 C986.62549061 341.73093202 985.7342722 345.97632403 984.84141159 350.22140121 C984.1055187 353.72351593 983.37309127 357.2263516 982.64066982 360.72919369 C980.68116504 370.10013051 978.71259912 379.46914078 976.73933411 388.83718872 C975.89197341 392.86010051 975.04677962 396.88346296 974.2021637 400.9069519 C973.14807052 405.92533918 972.08924211 410.94268955 971.02394104 415.95870972 C970.66486348 417.65035687 970.30692115 419.34224546 969.95021057 421.03439331 C966.06992708 439.40878676 961.57383101 454.72867066 947.7905426 468.34298706 C947.18855042 468.96689331 946.58655823 469.59079956 945.96632385 470.23361206 C931.23215844 484.42443515 911.67199404 487.97468635 892.04519653 487.84851074 C890.4208746 487.85296605 888.79655672 487.85917647 887.17224735 487.86696565 C882.75623974 487.8831983 878.34057898 487.87499545 873.92457211 487.86247444 C869.14410808 487.85335313 864.36370356 487.86747152 859.58325195 487.8787384 C851.31452201 487.89518177 843.04588883 487.89739887 834.77714729 487.88997269 C822.8123917 487.87942365 810.84775378 487.89288718 798.88301384 487.91243725 C779.45448461 487.94372186 760.02598035 487.95877754 740.59742737 487.96212769 C739.4365152 487.96233167 738.27560302 487.96253566 737.07951169 487.96274583 C735.33593643 487.96305088 735.33593643 487.96305088 733.55713743 487.9633621 C717.06177457 487.96628478 700.5664194 487.97309512 684.07106018 487.98458862 C682.90945012 487.98539392 681.74784006 487.98619921 680.55102969 487.98702891 C661.18318836 488.00078347 641.81536079 488.02256929 622.44753212 488.04845846 C610.51125037 488.06389466 598.57501366 488.07111503 586.63872211 488.06766354 C578.4662339 488.06562341 570.29376809 488.07028388 562.12128568 488.08020689 C557.40724477 488.08563841 552.69326193 488.08771563 547.97922134 488.08103371 C543.6623139 488.07494509 539.34551245 488.07801443 535.0286138 488.08827059 C533.46905063 488.09033992 531.90947847 488.0890388 530.34992213 488.08398099 C516.58589817 487.83142177 516.58589817 487.83142177 503.7905426 492.34298706 C498.57186989 502.66419155 497.39406534 515.80313138 495.1030426 527.09298706 C494.77971464 528.67636937 494.45614849 530.25970306 494.13233948 531.84298706 C493.34899971 535.67576671 492.56886438 539.5091854 491.7905426 543.34298706 C492.43271323 543.34146818 493.07488386 543.3399493 493.73651421 543.33838439 C531.83212096 543.24879072 569.92771208 543.18019976 608.0234027 543.13872574 C612.60187008 543.13372317 617.18033725 543.12854585 621.75880432 543.1232605 C622.6702601 543.12221126 623.58171587 543.12116201 624.52079152 543.12008098 C639.26151371 543.10269559 654.00217324 543.07116821 668.74285831 543.03437588 C683.87830809 542.99691446 699.01372515 542.97474023 714.14921939 542.96663308 C723.48186249 542.96115608 732.81432843 542.9438837 742.14691697 542.91132119 C748.55445729 542.89010904 754.96190658 542.88380211 761.36947943 542.88898155 C765.06137096 542.89153296 768.75295383 542.88773816 772.44478989 542.86616516 C776.46007034 542.84287528 780.47470274 542.85109076 784.49003601 542.86196899 C786.21481161 542.84449195 786.21481161 542.84449195 787.97443116 542.82666183 C801.07124668 542.92202311 813.1366758 546.12348843 822.78663635 555.22579956 C826.87350409 559.55906888 829.18780056 563.63812204 830.7905426 569.34298706 C831.00581604 569.96818237 831.22108948 570.59337769 831.44288635 571.23751831 C835.02534581 582.73416925 830.34649577 596.12319539 827.9311676 607.52658081 C827.54057696 609.39099707 827.15042837 611.25550598 826.76069641 613.12010193 C825.94415194 617.02001913 825.12337468 620.91901279 824.29933167 624.81735229 C823.25601747 629.75389386 822.22153639 634.69223236 821.19011307 639.63127041 C820.38488375 643.48352827 819.57567055 647.33494112 818.76526642 651.18611336 C818.38322134 653.00311547 818.00214427 654.82032145 817.62215424 656.63775444 C815.62743938 666.16382901 813.53799021 675.66291332 811.23878479 685.12057495 C811.04714878 685.92942107 810.85551277 686.73826719 810.65806961 687.5716238 C806.70608776 703.49346248 796.91618933 717.31851736 783.1655426 726.34298706 C781.38700329 727.36615243 779.59583763 728.36780537 777.7905426 729.34298706 C777.0274176 729.80060425 776.2642926 730.25822144 775.4780426 730.72970581 C759.5707756 739.6775435 741.54684914 738.9161532 723.89531541 738.8184973 C720.28944107 738.80308346 716.68360574 738.81122915 713.07771301 738.81652832 C706.84811775 738.82276011 700.61866896 738.81512243 694.38909531 738.7982769 C685.37487021 738.77436197 676.36080062 738.77749094 667.34655698 738.78790534 C652.70694348 738.80455932 638.06736854 738.80720045 623.42774963 738.79733276 C622.11709122 738.79645835 622.11709122 738.79645835 620.77995487 738.79556627 C611.0181824 738.78882907 601.25641326 738.77974475 591.49464417 738.76925659 C587.9463044 738.76551575 584.39796456 738.76185636 580.84962463 738.75827026 C579.97389806 738.75737935 579.09817149 738.75648844 578.19590776 738.75557052 C563.59441838 738.74128042 548.99300335 738.74639452 534.3915211 738.76619297 C525.39779435 738.77751036 516.40439039 738.7717608 507.41069801 738.74391413 C501.25610371 738.72602819 495.10167393 738.72588076 488.94706969 738.73970275 C485.3976346 738.7470557 481.84869299 738.74618098 478.29931259 738.72341728 C474.45107402 738.69889926 470.60352201 738.71296207 466.75523376 738.73066711 C465.07563161 738.71056451 465.07563161 738.71056451 463.3620981 738.69005579 C456.49373157 738.76289854 452.89229518 739.64405266 447.7905426 744.34298706 C445.08959324 748.55545647 444.09335185 752.71520971 443.1240387 757.59371948 C442.98182734 758.2968587 442.83961599 758.99999792 442.69309521 759.72444439 C442.2252834 762.04757378 441.76965589 764.37291826 441.3139801 766.69845581 C440.98468816 768.34527154 440.65458825 769.99192588 440.32373047 771.63842773 C439.62416301 775.12744059 438.9297329 778.61741968 438.23942566 782.10827637 C437.16513095 787.53955087 436.07821613 792.96824698 434.98854065 798.39645386 C433.73425269 804.64728268 432.48158051 810.89842664 431.23220348 817.15023899 C428.90302039 828.80308478 426.55427729 840.45159503 424.13581848 852.08630371 C423.78821804 853.76252311 423.44301259 855.43924148 423.10054016 857.11651611 C421.38717054 865.50634711 419.48472586 873.81146577 417.2280426 882.07345581 C417.02786026 882.81388626 416.82767792 883.55431671 416.62142944 884.31718445 C413.65162535 894.89271966 407.9602788 903.12678049 400.7905426 911.34298706 C400.27105042 911.95786987 399.75155823 912.57275269 399.21632385 913.20626831 C386.84425651 926.76256377 367.46302623 934.55015305 349.37310219 935.71678162 C344.70750045 935.90348051 340.04415115 935.88503916 335.37574768 935.86056519 C333.60286896 935.86600248 331.82999476 935.87313404 330.05712891 935.88180542 C325.29690139 935.89984695 320.53702545 935.8930527 315.77679276 935.88028908 C310.76522865 935.87006564 305.75369193 935.87957997 300.74212646 935.88583374 C292.33413867 935.89308119 283.92629209 935.88359699 275.51832581 935.86447144 C265.83025976 935.84268704 256.14253033 935.84977722 246.45447236 935.87177706 C238.09641372 935.88998876 229.73845577 935.89246192 221.38038367 935.88202238 C216.40580369 935.87582179 211.43138143 935.87485678 206.4568119 935.88816833 C201.7804244 935.89981149 197.10446694 935.89154829 192.42812538 935.86859131 C190.72307546 935.86334999 189.01798868 935.86473838 187.31295395 935.87364197 C170.75072916 935.95208753 156.09179634 933.24367953 143.4780426 921.59298706 C134.70427504 912.25316998 131.56196692 899.96290602 131.63467407 887.41316223 C131.89652401 882.25544904 132.97583997 877.33048813 134.0796051 872.29611206 C134.32992493 871.10733963 134.58024475 869.9185672 134.83815002 868.69377136 C135.39217564 866.06506047 135.9498968 863.43743534 136.51350403 860.81079102 C137.95951966 854.06420871 139.36550118 847.30920885 140.77337265 840.5545826 C141.12140819 838.88487943 141.46978529 837.21524744 141.81848526 835.54568291 C146.61875578 812.55059826 151.16148236 789.50425004 155.71353912 766.45899963 C156.41835741 762.8912386 157.12368268 759.32357817 157.82917786 755.75595093 C159.97352225 744.91204106 162.11674956 734.06791138 164.25823402 723.22343636 C167.21914918 708.22962649 170.18666661 693.23713281 173.1577301 678.24533081 C173.5920947 676.05339106 174.02645649 673.86145076 174.46081543 671.66950989 C175.10367059 668.42545011 175.74652908 665.181391 176.38940334 661.93733501 C181.47784394 636.25956603 186.56593211 610.58172763 191.62257385 584.89767456 C191.77099983 584.14382351 191.91942581 583.38997246 192.07234955 582.61327744 C193.22218389 576.7731314 194.37188033 570.9329582 195.52132416 565.09273529 C200.50510315 539.77180911 205.55759106 514.46491259 210.62886047 489.16137695 C215.42362914 465.23623391 220.16958352 441.30242122 224.7905426 417.34298706 C224.08147766 417.18741333 223.37241272 417.0318396 222.64186096 416.87155151 C184.42579 408.42900645 150.86940048 393.62511158 123.7905426 364.34298706 C123.26847229 363.79126831 122.74640198 363.23954956 122.20851135 362.67111206 C112.51611621 352.04806539 104.44374711 340.06154911 97.7905426 327.34298706 C97.45957581 326.72826538 97.12860901 326.1135437 96.78761292 325.48019409 C91.98242374 316.46529133 88.64043975 307.29463241 85.8530426 297.46798706 C85.55841125 296.43440063 85.26377991 295.40081421 84.96022034 294.33590698 C82.39771427 284.83553182 80.61999097 276.16800871 83.7280426 266.65548706 C84.29845276 264.85531128 84.29845276 264.85531128 84.88038635 263.01876831 C85.18073792 262.1357605 85.48108948 261.25275269 85.7905426 260.34298706 C84.95394104 259.6507605 84.11733948 258.95853394 83.25538635 258.24533081 C64.55225237 242.60186977 49.15564227 226.0356083 37.7905426 204.34298706 C37.48132874 203.76113647 37.17211487 203.17928589 36.85353088 202.57980347 C30.47485335 190.425972 23.0638528 174.20237594 26.7905426 160.34298706 C27.03933167 159.413573 27.28812073 158.48415894 27.54444885 157.52658081 C28.24012094 155.11021254 28.98487056 152.72453334 29.7905426 150.34298706 C29.0892926 150.094198 28.3880426 149.84540894 27.6655426 149.58908081 C-0.48427403 137.38827713 -23.36557716 107.13199283 -34.72459412 79.51852417 C-42.26294867 59.69485959 -48.87227729 37.77717344 -41.2094574 17.34298706 C-37.46386247 10.14780167 -31.25078435 5.09991329 -23.60793442 2.43634403 C-15.64783031 0.3441806 -8.20537584 -0.06818109 0 0 Z " fill="#0087D5" transform="translate(69.20945739746094,11.657012939453125)"/>
<path d="M0 0 C1.39782221 0.00067579 2.79564556 0.00003033 4.19346672 -0.00180733 C8.00246485 -0.00299815 11.81117387 0.01452355 15.62010658 0.03535604 C19.74097301 0.0545793 23.86185338 0.05624326 27.98275757 0.06022644 C36.0454768 0.0708477 44.10806145 0.0977935 52.17071759 0.13065477 C58.73155046 0.15708865 65.29237695 0.17752026 71.85324287 0.19372177 C72.78917664 0.19603743 73.7251104 0.1983531 74.68940579 0.20073893 C76.59120699 0.20541748 78.49300822 0.21008183 80.39480949 0.21473216 C98.21323651 0.25899352 116.03156145 0.32175605 133.84990675 0.39093862 C149.10052579 0.44972954 164.35112327 0.49294692 179.6018219 0.52462769 C197.34510092 0.56149483 215.08831205 0.60799156 232.83152348 0.66967762 C234.72884909 0.6762492 236.62617475 0.68280929 238.52350044 0.68935776 C239.45680313 0.69258469 240.39010581 0.69581163 241.35169039 0.69913635 C247.89124736 0.72110249 254.43079966 0.73633871 260.97038078 0.74890518 C268.95995339 0.76445055 276.94940926 0.79070266 284.93890106 0.83011313 C289.00632165 0.84992111 293.07361519 0.86528971 297.14108658 0.86762047 C318.91468788 0.88449239 339.75809143 2.09672943 360.9155426 7.59298706 C362.1022052 7.89817261 363.2888678 8.20335815 364.51148987 8.51779175 C410.74850217 20.71065386 451.51638152 49.4356322 476.1030426 90.84298706 C492.49054717 119.30722034 501.55098901 151.51777158 502.7905426 184.34298706 C502.82228577 185.07082397 502.85402893 185.79866089 502.88673401 186.54855347 C503.45901761 201.3893067 501.80284828 216.15441437 498.7280426 230.65548706 C495.12263638 245.3765534 495.12263638 245.3765534 497.2280426 259.90548706 C500.15413776 264.11992206 503.05928035 267.19363501 507.7905426 269.34298706 C513.7322288 270.23604928 519.62494461 270.13468841 525.62149048 270.07556152 C527.46149751 270.07944607 529.30150053 270.08597592 531.14148992 270.09491861 C536.19122516 270.11189081 541.24022847 270.09160768 546.28989828 270.06528759 C551.7386465 270.0434725 557.18732391 270.05636715 562.63609314 270.06520081 C572.07763954 270.07593091 581.51896482 270.06518638 590.96048164 270.04030228 C604.62762317 270.00466452 618.29457201 270.00591632 631.96174663 270.01690011 C654.15755295 270.03410821 676.35329143 270.02757416 698.54908752 270.00314331 C699.21305773 270.0024178 699.87702794 270.00169229 700.56111846 270.00094479 C705.94017702 269.99506579 711.31923552 269.98913603 716.69829393 269.98312363 C732.17199321 269.96585773 747.64569433 269.95340608 763.11940002 269.943573 C764.11321727 269.94293197 764.11321727 269.94293197 765.12711164 269.94227798 C787.90036463 269.92770703 810.67359309 269.92929673 833.4468469 269.94162214 C847.07472487 269.94809707 860.70243546 269.93927146 874.3302856 269.91053759 C883.67421263 269.89161099 893.01807994 269.88653502 902.3620242 269.89223053 C907.74920593 269.89496675 913.13617352 269.89110118 918.52331734 269.86953926 C923.46267142 269.8498525 928.40167849 269.84880411 933.3410508 269.86204736 C935.12034781 269.86356779 936.89966696 269.8584023 938.67891837 269.84557219 C954.27754473 269.73937536 969.65324208 271.26247077 981.8139801 282.15548706 C986.39885179 286.9531587 988.78107541 292.07344941 990.7905426 298.34298706 C991.0277301 299.02361206 991.2649176 299.70423706 991.5092926 300.40548706 C994.68921141 310.78206421 990.68270108 322.38626622 988.5092926 332.68673706 C988.17583014 334.28578397 987.84280674 335.88492248 987.51019287 337.48414612 C986.62549061 341.73093202 985.7342722 345.97632403 984.84141159 350.22140121 C984.1055187 353.72351593 983.37309127 357.2263516 982.64066982 360.72919369 C980.68116504 370.10013051 978.71259912 379.46914078 976.73933411 388.83718872 C975.89197341 392.86010051 975.04677962 396.88346296 974.2021637 400.9069519 C973.14807052 405.92533918 972.08924211 410.94268955 971.02394104 415.95870972 C970.66486348 417.65035687 970.30692115 419.34224546 969.95021057 421.03439331 C966.06992708 439.40878676 961.57383101 454.72867066 947.7905426 468.34298706 C947.18855042 468.96689331 946.58655823 469.59079956 945.96632385 470.23361206 C931.23215844 484.42443515 911.67199404 487.97468635 892.04519653 487.84851074 C890.4208746 487.85296605 888.79655672 487.85917647 887.17224735 487.86696565 C882.75623974 487.8831983 878.34057898 487.87499545 873.92457211 487.86247444 C869.14410808 487.85335313 864.36370356 487.86747152 859.58325195 487.8787384 C851.31452201 487.89518177 843.04588883 487.89739887 834.77714729 487.88997269 C822.8123917 487.87942365 810.84775378 487.89288718 798.88301384 487.91243725 C779.45448461 487.94372186 760.02598035 487.95877754 740.59742737 487.96212769 C739.4365152 487.96233167 738.27560302 487.96253566 737.07951169 487.96274583 C735.33593643 487.96305088 735.33593643 487.96305088 733.55713743 487.9633621 C717.06177457 487.96628478 700.5664194 487.97309512 684.07106018 487.98458862 C682.90945012 487.98539392 681.74784006 487.98619921 680.55102969 487.98702891 C661.18318836 488.00078347 641.81536079 488.02256929 622.44753212 488.04845846 C610.51125037 488.06389466 598.57501366 488.07111503 586.63872211 488.06766354 C578.4662339 488.06562341 570.29376809 488.07028388 562.12128568 488.08020689 C557.40724477 488.08563841 552.69326193 488.08771563 547.97922134 488.08103371 C543.6623139 488.07494509 539.34551245 488.07801443 535.0286138 488.08827059 C533.46905063 488.09033992 531.90947847 488.0890388 530.34992213 488.08398099 C516.58589817 487.83142177 516.58589817 487.83142177 503.7905426 492.34298706 C498.57186989 502.66419155 497.39406534 515.80313138 495.1030426 527.09298706 C494.77971464 528.67636937 494.45614849 530.25970306 494.13233948 531.84298706 C493.34899971 535.67576671 492.56886438 539.5091854 491.7905426 543.34298706 C492.43271323 543.34146818 493.07488386 543.3399493 493.73651421 543.33838439 C531.83212096 543.24879072 569.92771208 543.18019976 608.0234027 543.13872574 C612.60187008 543.13372317 617.18033725 543.12854585 621.75880432 543.1232605 C622.6702601 543.12221126 623.58171587 543.12116201 624.52079152 543.12008098 C639.26151371 543.10269559 654.00217324 543.07116821 668.74285831 543.03437588 C683.87830809 542.99691446 699.01372515 542.97474023 714.14921939 542.96663308 C723.48186249 542.96115608 732.81432843 542.9438837 742.14691697 542.91132119 C748.55445729 542.89010904 754.96190658 542.88380211 761.36947943 542.88898155 C765.06137096 542.89153296 768.75295383 542.88773816 772.44478989 542.86616516 C776.46007034 542.84287528 780.47470274 542.85109076 784.49003601 542.86196899 C786.21481161 542.84449195 786.21481161 542.84449195 787.97443116 542.82666183 C801.07124668 542.92202311 813.1366758 546.12348843 822.78663635 555.22579956 C826.87350409 559.55906888 829.18780056 563.63812204 830.7905426 569.34298706 C831.00581604 569.96818237 831.22108948 570.59337769 831.44288635 571.23751831 C835.02534581 582.73416925 830.34649577 596.12319539 827.9311676 607.52658081 C827.54057696 609.39099707 827.15042837 611.25550598 826.76069641 613.12010193 C825.94415194 617.02001913 825.12337468 620.91901279 824.29933167 624.81735229 C823.25601747 629.75389386 822.22153639 634.69223236 821.19011307 639.63127041 C820.38488375 643.48352827 819.57567055 647.33494112 818.76526642 651.18611336 C818.38322134 653.00311547 818.00214427 654.82032145 817.62215424 656.63775444 C815.62743938 666.16382901 813.53799021 675.66291332 811.23878479 685.12057495 C811.04714878 685.92942107 810.85551277 686.73826719 810.65806961 687.5716238 C806.70608776 703.49346248 796.91618933 717.31851736 783.1655426 726.34298706 C781.38700329 727.36615243 779.59583763 728.36780537 777.7905426 729.34298706 C777.0274176 729.80060425 776.2642926 730.25822144 775.4780426 730.72970581 C759.5707756 739.6775435 741.54684914 738.9161532 723.89531541 738.8184973 C720.28944107 738.80308346 716.68360574 738.81122915 713.07771301 738.81652832 C706.84811775 738.82276011 700.61866896 738.81512243 694.38909531 738.7982769 C685.37487021 738.77436197 676.36080062 738.77749094 667.34655698 738.78790534 C652.70694348 738.80455932 638.06736854 738.80720045 623.42774963 738.79733276 C622.11709122 738.79645835 622.11709122 738.79645835 620.77995487 738.79556627 C611.0181824 738.78882907 601.25641326 738.77974475 591.49464417 738.76925659 C587.9463044 738.76551575 584.39796456 738.76185636 580.84962463 738.75827026 C579.97389806 738.75737935 579.09817149 738.75648844 578.19590776 738.75557052 C563.59441838 738.74128042 548.99300335 738.74639452 534.3915211 738.76619297 C525.39779435 738.77751036 516.40439039 738.7717608 507.41069801 738.74391413 C501.25610371 738.72602819 495.10167393 738.72588076 488.94706969 738.73970275 C485.3976346 738.7470557 481.84869299 738.74618098 478.29931259 738.72341728 C474.45107402 738.69889926 470.60352201 738.71296207 466.75523376 738.73066711 C465.07563161 738.71056451 465.07563161 738.71056451 463.3620981 738.69005579 C456.49373157 738.76289854 452.89229518 739.64405266 447.7905426 744.34298706 C445.08959324 748.55545647 444.09335185 752.71520971 443.1240387 757.59371948 C442.98182734 758.2968587 442.83961599 758.99999792 442.69309521 759.72444439 C442.2252834 762.04757378 441.76965589 764.37291826 441.3139801 766.69845581 C440.98468816 768.34527154 440.65458825 769.99192588 440.32373047 771.63842773 C439.62416301 775.12744059 438.9297329 778.61741968 438.23942566 782.10827637 C437.16513095 787.53955087 436.07821613 792.96824698 434.98854065 798.39645386 C433.73425269 804.64728268 432.48158051 810.89842664 431.23220348 817.15023899 C428.90302039 828.80308478 426.55427729 840.45159503 424.13581848 852.08630371 C423.78821804 853.76252311 423.44301259 855.43924148 423.10054016 857.11651611 C421.38717054 865.50634711 419.48472586 873.81146577 417.2280426 882.07345581 C417.02786026 882.81388626 416.82767792 883.55431671 416.62142944 884.31718445 C413.65162535 894.89271966 407.9602788 903.12678049 400.7905426 911.34298706 C400.27105042 911.95786987 399.75155823 912.57275269 399.21632385 913.20626831 C386.84425651 926.76256377 367.46302623 934.55015305 349.37310219 935.71678162 C344.70750045 935.90348051 340.04415115 935.88503916 335.37574768 935.86056519 C333.60286896 935.86600248 331.82999476 935.87313404 330.05712891 935.88180542 C325.29690139 935.89984695 320.53702545 935.8930527 315.77679276 935.88028908 C310.76522865 935.87006564 305.75369193 935.87957997 300.74212646 935.88583374 C292.33413867 935.89308119 283.92629209 935.88359699 275.51832581 935.86447144 C265.83025976 935.84268704 256.14253033 935.84977722 246.45447236 935.87177706 C238.09641372 935.88998876 229.73845577 935.89246192 221.38038367 935.88202238 C216.40580369 935.87582179 211.43138143 935.87485678 206.4568119 935.88816833 C201.7804244 935.89981149 197.10446694 935.89154829 192.42812538 935.86859131 C190.72307546 935.86334999 189.01798868 935.86473838 187.31295395 935.87364197 C170.75072916 935.95208753 156.09179634 933.24367953 143.4780426 921.59298706 C134.70427504 912.25316998 131.56196692 899.96290602 131.63467407 887.41316223 C131.89652401 882.25544904 132.97583997 877.33048813 134.0796051 872.29611206 C134.32992493 871.10733963 134.58024475 869.9185672 134.83815002 868.69377136 C135.39217564 866.06506047 135.9498968 863.43743534 136.51350403 860.81079102 C137.95951966 854.06420871 139.36550118 847.30920885 140.77337265 840.5545826 C141.12140819 838.88487943 141.46978529 837.21524744 141.81848526 835.54568291 C146.61875578 812.55059826 151.16148236 789.50425004 155.71353912 766.45899963 C156.41835741 762.8912386 157.12368268 759.32357817 157.82917786 755.75595093 C159.97352225 744.91204106 162.11674956 734.06791138 164.25823402 723.22343636 C167.21914918 708.22962649 170.18666661 693.23713281 173.1577301 678.24533081 C173.5920947 676.05339106 174.02645649 673.86145076 174.46081543 671.66950989 C175.10367059 668.42545011 175.74652908 665.181391 176.38940334 661.93733501 C181.47784394 636.25956603 186.56593211 610.58172763 191.62257385 584.89767456 C191.77099983 584.14382351 191.91942581 583.38997246 192.07234955 582.61327744 C193.22218389 576.7731314 194.37188033 570.9329582 195.52132416 565.09273529 C200.50510315 539.77180911 205.55759106 514.46491259 210.62886047 489.16137695 C215.42362914 465.23623391 220.16958352 441.30242122 224.7905426 417.34298706 C224.08147766 417.18741333 223.37241272 417.0318396 222.64186096 416.87155151 C184.42579 408.42900645 150.86940048 393.62511158 123.7905426 364.34298706 C123.26847229 363.79126831 122.74640198 363.23954956 122.20851135 362.67111206 C112.51611621 352.04806539 104.44374711 340.06154911 97.7905426 327.34298706 C97.45957581 326.72826538 97.12860901 326.1135437 96.78761292 325.48019409 C91.98242374 316.46529133 88.64043975 307.29463241 85.8530426 297.46798706 C85.55841125 296.43440063 85.26377991 295.40081421 84.96022034 294.33590698 C82.39771427 284.83553182 80.61999097 276.16800871 83.7280426 266.65548706 C84.29845276 264.85531128 84.29845276 264.85531128 84.88038635 263.01876831 C85.18073792 262.1357605 85.48108948 261.25275269 85.7905426 260.34298706 C84.95394104 259.6507605 84.11733948 258.95853394 83.25538635 258.24533081 C64.55225237 242.60186977 49.15564227 226.0356083 37.7905426 204.34298706 C37.48132874 203.76113647 37.17211487 203.17928589 36.85353088 202.57980347 C30.47485335 190.425972 23.0638528 174.20237594 26.7905426 160.34298706 C27.03933167 159.413573 27.28812073 158.48415894 27.54444885 157.52658081 C28.24012094 155.11021254 28.98487056 152.72453334 29.7905426 150.34298706 C29.0892926 150.094198 28.3880426 149.84540894 27.6655426 149.58908081 C-0.48427403 137.38827713 -23.36557716 107.13199283 -34.72459412 79.51852417 C-42.26294867 59.69485959 -48.87227729 37.77717344 -41.2094574 17.34298706 C-37.46386247 10.14780167 -31.25078435 5.09991329 -23.60793442 2.43634403 C-15.64783031 0.3441806 -8.20537584 -0.06818109 0 0 Z M-14.2094574 31.34298706 C-14.21728745 32.60842346 -14.22511749 33.87385986 -14.23318481 35.17764282 C-14.23758922 35.8894508 -14.24199362 36.60125877 -14.24653149 37.33463669 C-14.20200441 39.7467246 -13.83918503 41.94834507 -13.29148865 44.29611206 C-13.09176453 45.15664185 -12.89204041 46.01717163 -12.68626404 46.90377808 C-12.46704285 47.79121704 -12.24782166 48.67865601 -12.0219574 49.59298706 C-11.79564636 50.52103149 -11.56933533 51.44907593 -11.33616638 52.40524292 C-9.57744678 59.37493846 -7.34912982 65.86564486 -4.2094574 72.34298706 C-3.76988708 73.3213855 -3.33031677 74.29978394 -2.87742615 75.30783081 C0.75817232 83.08981432 5.35265257 89.71204643 10.7905426 96.34298706 C11.59105042 97.3213855 12.39155823 98.29978394 13.21632385 99.30783081 C42.1699654 132.74291611 84.4096001 141.02899364 126.2905426 146.40548706 C174.31050745 152.64105014 229.05453715 161.61300992 261.17042542 202.08175659 C275.02952299 220.56892844 281.87287534 242.09272758 282.1030426 265.15548706 C282.13204651 266.05074097 282.16105042 266.94599487 282.19093323 267.86837769 C282.42352733 294.72405002 274.40434912 322.50091616 269.26324844 348.72242737 C268.36649656 353.30062945 267.47363971 357.87958785 266.58075619 362.45854568 C260.20596073 395.14847438 253.76827296 427.82604504 247.29103088 460.49581909 C243.42847497 479.97980708 239.58413457 499.46721103 235.7671051 518.96017456 C235.55216526 520.05771938 235.33722542 521.15526421 235.11577225 522.28606796 C234.23713898 526.77265 233.3585587 531.25924241 232.48000526 535.74584007 C224.36597572 577.18091278 216.17092251 618.59865611 207.86712837 659.9961195 C206.83347631 665.14944011 205.80015395 670.30282675 204.7671051 675.45626831 C204.46056063 676.98541713 204.46056063 676.98541713 204.14782333 678.54545784 C200.96972542 694.40401394 197.82083965 710.26820731 194.6889801 726.13595581 C194.26287986 728.29414905 193.83677818 730.452342 193.41067505 732.61053467 C191.72542913 741.14755798 190.04053824 749.68465063 188.35826111 758.22225952 C183.91779254 780.75238645 179.42127987 803.26851388 174.75538635 825.75314331 C174.34991374 827.71083823 173.94450229 829.66854581 173.53915405 831.62626648 C171.82474523 839.90046236 170.10529082 848.17341707 168.35770512 856.44067669 C167.66158525 859.74344158 166.97409443 863.04796302 166.28860664 866.35294914 C165.9732098 867.86335182 165.65395573 869.37295554 165.33036613 870.88162422 C162.02225063 884.62463017 162.02225063 884.62463017 163.9155426 898.28048706 C167.26942072 901.96975299 170.35111806 904.14017471 175.3432579 904.84355831 C176.68008208 904.86406606 178.01735265 904.86296909 179.35420227 904.8441925 C180.4661184 904.8524941 180.4661184 904.8524941 181.60049748 904.8609634 C184.07402199 904.87453093 186.54653056 904.85962243 189.02003479 904.84469604 C190.79777962 904.84848078 192.57552149 904.8539821 194.35325623 904.86106873 C199.17585814 904.87502447 203.9981033 904.86385086 208.82068539 904.84735751 C213.87421883 904.83349265 218.92773186 904.83996906 223.98127747 904.8434906 C232.47179397 904.84619257 240.96216912 904.83272159 249.45265198 904.80953979 C259.25356366 904.78296443 269.05423849 904.78117215 278.85517383 904.79292816 C288.29623857 904.80373015 297.73721806 904.79749766 307.17827606 904.78337288 C311.18919655 904.77763061 315.20005428 904.77768198 319.21097565 904.78243828 C323.94214026 904.78723139 328.67304762 904.77701012 333.40416336 904.75548363 C335.13507088 904.74994601 336.86600327 904.74942247 338.59691238 904.75443649 C353.69164279 904.79265904 365.54861398 902.81475497 377.0874176 892.23751831 C384.29641867 884.58134236 388.13271206 875.85158199 390.2124176 865.62814331 C390.41349121 864.69446426 390.61456482 863.76078522 390.82173157 862.79881287 C391.49399971 859.65001014 392.14367077 856.49710004 392.7905426 853.34298706 C393.27946617 850.99256207 393.76839879 848.64213896 394.25733948 846.29171753 C395.73431999 839.14881426 397.18088985 831.999927 398.62263489 824.84985733 C399.18939496 822.04340891 399.75923399 819.23758949 400.32917023 816.43178463 C403.09057403 802.83630992 405.82577082 789.23676376 408.4624176 775.61642456 C408.86425858 773.55462243 409.26627092 771.49285369 409.66847229 769.43112183 C410.39581371 765.7021985 411.10804389 761.9708516 411.81105042 758.23727417 C415.09433999 741.15825584 419.84510533 725.82047018 434.7905426 715.34298706 C445.08604242 709.66842064 454.36490832 708.04368628 465.96728516 708.08470154 C467.78723569 708.07918798 467.78723569 708.07918798 469.64395291 708.07356304 C472.99484387 708.06533444 476.34552011 708.06594372 479.6964041 708.07028997 C483.31679543 708.07277415 486.93715966 708.06368773 490.55754089 708.0559082 C496.82652699 708.04388203 503.0954877 708.03875626 509.36448479 708.03802681 C518.43812811 708.03669908 527.51170998 708.02156921 536.58533157 708.00253164 C551.32080121 707.97171122 566.05627241 707.94753575 580.79176331 707.92965698 C582.11375498 707.92804796 582.11375498 707.92804796 583.46245355 707.92640644 C593.29528525 707.91458616 603.12811756 707.90438013 612.96095276 707.89596558 C616.52695212 707.89289156 620.09295148 707.88980279 623.65895081 707.88668823 C624.97887171 707.88554022 624.97887171 707.88554022 626.32545768 707.88436902 C641.00577136 707.87128069 655.68604048 707.8466331 670.36632115 707.81294483 C679.41539435 707.79267504 688.4643722 707.78236265 697.51346827 707.78493404 C703.71486732 707.78597031 709.91619103 707.77631294 716.11756378 707.75829501 C719.69338242 707.74826669 723.26903434 707.74310394 726.84486198 707.75106239 C730.72561385 707.75959666 734.60608695 707.74498104 738.48681641 707.72825623 C739.61075552 707.73446804 740.73469463 707.74067986 741.89269251 707.74707991 C753.32815758 707.65731324 763.79330245 704.31958267 772.06007385 696.08126831 C780.09162664 686.58943319 782.57947564 675.92214894 785.0327301 663.94845581 C785.32574342 662.55232134 785.61955474 661.15635415 785.91410828 659.76054382 C786.6858955 656.09254594 787.44679164 652.42237315 788.20533752 648.75161743 C788.95754447 645.12117142 789.72018699 641.49292226 790.48194885 637.86447144 C791.82604816 631.45588195 793.15705544 625.04465957 794.48299789 618.63229179 C795.35437922 614.42546163 796.23797137 610.22142742 797.13261986 606.01948452 C797.56445623 603.98996585 797.99383529 601.95994317 798.42240906 599.92973328 C798.95016697 597.43287705 799.48235351 594.93695123 800.01976013 592.44215393 C800.25365448 591.32959732 800.48754883 590.21704071 800.72853088 589.07077026 C800.93454926 588.10484451 801.14056763 587.13891876 801.35282898 586.14372253 C801.83228672 583.07588498 802.13657482 580.43773403 801.7905426 577.34298706 C798.73706583 574.32430701 796.44113164 573.96777132 792.23222828 573.96660614 C791.09422742 573.9589997 789.95622656 573.95139325 788.78374082 573.94355631 C787.53308212 573.95045024 786.28242342 573.95734418 784.99386597 573.96444702 C783.65213929 573.96115681 782.31041532 573.95654358 780.96869725 573.95071936 C777.27812072 573.93848457 773.58777325 573.9448843 769.89719689 573.95422435 C765.91817231 573.96101037 761.93919043 573.9504933 757.96017456 573.94194031 C751.06304468 573.92936216 744.16597749 573.9274049 737.26883888 573.93229675 C727.2868985 573.93909922 717.30505279 573.92659682 707.32312932 573.90878958 C691.11573802 573.88012413 674.90835694 573.86262307 658.70094299 573.85421753 C657.73062538 573.85371035 656.76030776 573.85320317 655.76058658 573.85268062 C648.87473872 573.84915416 641.9888907 573.84602511 635.1030426 573.84298706 C627.24602748 573.83951937 619.3890125 573.83586983 611.53199768 573.83175659 C610.56437664 573.83125398 609.59675561 573.83075136 608.59981272 573.83023351 C592.45965597 573.82148625 576.31953428 573.80104187 560.1794011 573.77227449 C550.22465966 573.7551001 540.27001743 573.74850721 530.31526311 573.75558054 C523.49103315 573.75976297 516.66686569 573.75340007 509.84265027 573.73878181 C505.90636256 573.73073112 501.97022986 573.72760033 498.03394318 573.73760414 C494.42705353 573.74669411 490.82045151 573.74193153 487.21358635 573.72638971 C485.29774297 573.72171171 483.38188088 573.73176232 481.46606141 573.74241781 C473.74573258 573.69139937 466.19866183 573.49549735 460.2905426 568.03048706 C457.4394309 562.92224526 457.68413374 558.49779033 458.80690002 552.88546753 C459.05433456 551.62330414 459.3017691 550.36114075 459.55670166 549.06072998 C459.83602399 547.69378664 460.11580569 546.3269371 460.39601135 544.96017456 C460.68002373 543.54032181 460.96332146 542.12032593 461.24594116 540.70019531 C461.84046231 537.72491431 462.4422843 534.75123396 463.04957581 531.77853394 C463.8206165 528.0022949 464.57559615 524.22307192 465.32523632 520.44253349 C465.9088459 517.50706313 466.50014261 514.57318095 467.09372902 511.63971329 C467.37443112 510.24892979 467.65308881 508.8577318 467.92951012 507.46609116 C471.43249752 489.89456572 475.46284394 475.43793163 491.0092926 464.99533081 C504.04250717 457.25228339 518.37687588 457.04320383 533.168396 457.09143066 C534.78941189 457.08928783 536.41042681 457.08625926 538.0314396 457.08243024 C542.45220741 457.07444506 546.8728898 457.07867063 551.29365718 457.08494902 C556.07417541 457.08950498 560.85467796 457.08243123 565.63519287 457.0766449 C573.90886195 457.06803326 582.18250965 457.06619856 590.45618248 457.06859207 C602.42925281 457.07169608 614.40227608 457.06002909 626.37533454 457.04404227 C645.81768809 457.01811083 665.26004168 456.99807515 684.70240784 456.98458862 C685.8647542 456.98377825 687.02710057 456.98296788 688.22466955 456.98213296 C704.73137061 456.97090377 721.23806829 456.9656281 737.74477265 456.96274583 C738.90802859 456.96254184 740.07128453 456.96233785 741.26979065 456.96212769 C743.01253989 456.96182778 743.01253989 456.96182778 744.79049619 456.96152182 C764.16617429 456.95778866 783.54180115 456.9387049 802.91745359 456.90703332 C814.86047131 456.88812715 826.80335759 456.88215204 838.74638615 456.8928505 C846.92688195 456.89917028 855.10728344 456.89112715 863.28775855 456.87179638 C868.00601045 456.86111757 872.7240333 456.85695785 877.44228363 456.87026787 C881.7644147 456.88233814 886.08611674 456.87593649 890.40821067 456.85507588 C891.96855136 456.85078154 893.52892854 456.85318919 895.08924355 456.86311705 C908.6410896 456.94306004 918.65011284 454.35151171 928.4780426 444.68283081 C934.23941434 438.35972533 937.15944707 431.30988948 938.78590393 422.98800659 C938.95080826 422.19289169 939.11571259 421.39777679 939.28561401 420.5785675 C939.82530696 417.96304404 940.34897426 415.34458789 940.87257385 412.72579956 C941.25266056 410.86792028 941.63375921 409.01024777 942.01580811 407.152771 C943.02094578 402.25236717 944.01258399 397.34932749 945.001297 392.44558716 C945.98372669 387.58425919 946.97827893 382.72541714 947.97218323 377.86642456 C949.13901003 372.15960913 950.30347029 366.45235881 951.4563446 360.7427063 C953.24883899 351.86926741 955.06457922 343.00268821 956.9599762 334.15060425 C957.4582758 331.8050003 957.95592412 329.45925898 958.45345116 327.11349106 C958.9136104 324.96151449 959.3851778 322.81225317 959.85714722 320.6628418 C960.12867111 319.3815036 960.40019501 318.10016541 960.6799469 316.77999878 C960.91996933 315.67421478 961.15999176 314.56843079 961.4072876 313.42913818 C961.83519905 309.98339216 961.91025131 307.64514449 960.7905426 304.34298706 C956.26760036 301.44674127 952.3350788 300.91376391 947.09198666 300.96939945 C945.95285707 300.96347217 945.95285707 300.96347217 944.79071477 300.95742515 C942.24318214 300.94781111 939.69619945 300.95956765 937.14868164 300.97117615 C935.3048555 300.96860162 933.46103082 300.96470071 931.61720997 300.95958656 C926.54789832 300.94929993 921.47876039 300.95762467 916.40945709 300.9688834 C910.94299666 300.97772679 905.47656108 300.96923659 900.01010132 300.962677 C890.53529725 300.95351404 881.0605416 300.95485436 871.58573723 300.96286201 C857.87256587 300.97408697 844.15946359 300.96505805 830.44629825 300.95030021 C808.17945655 300.92651735 785.91262048 300.91312022 763.64576721 300.90914917 C762.97947487 300.90902602 762.31318253 300.90890287 761.62669951 300.908776 C746.76257183 300.90606222 731.89844463 300.90514604 717.03431674 300.90619965 C710.97218305 300.90662443 704.91004935 300.90693196 698.84791565 300.90719604 C698.18304758 300.90722882 697.51817951 300.9072616 696.83316393 300.90729537 C673.98757038 300.90832736 651.14201267 300.89390731 628.29643494 300.86636299 C614.62110752 300.85056286 600.94590697 300.84829481 587.27057821 300.86349701 C577.89532864 300.87296844 568.52015547 300.86819666 559.14491486 300.85228319 C553.73775503 300.84359485 548.33079827 300.84143424 542.92364883 300.85680962 C537.96826337 300.87078763 533.01324475 300.86623035 528.05787898 300.8472886 C526.27049069 300.84369174 524.48307299 300.84678001 522.69571286 300.85743827 C505.52797556 300.95286821 491.83183311 297.56432383 478.6030426 285.90548706 C470.27340375 277.09496184 464.84366421 264.15055006 464.77101135 252.10470581 C465.09765881 243.88554942 466.56650155 236.12952469 468.26856995 228.10812378 C471.25169746 213.72197089 472.45341769 199.02277425 471.7905426 184.34298706 C471.75477112 183.50993042 471.71899963 182.67687378 471.68214417 181.818573 C469.54752753 138.7055494 452.47083398 101.09751421 420.9780426 71.71798706 C390.45515391 45.08856921 351.88345831 32.21516223 311.68028259 32.18476868 C310.26921851 32.18019456 308.85815577 32.17519332 307.44709456 32.16980511 C303.59315586 32.15631124 299.73922592 32.14883123 295.88526988 32.14237845 C291.72043387 32.13433574 287.55561585 32.12065143 283.39079285 32.10766602 C276.18274375 32.08595791 268.97469279 32.06779285 261.76662827 32.05206108 C251.34508537 32.02931066 240.92356244 32.00117512 230.50203653 31.9717418 C213.59219192 31.92412915 196.68233912 31.88084791 179.7724762 31.84030151 C163.34994368 31.80091434 146.92741843 31.75948043 130.50489807 31.71530151 C129.49194681 31.71257724 128.47899555 31.70985297 127.43534879 31.70704614 C122.35347082 31.69336613 117.27159296 31.67964597 112.18971515 31.66590583 C70.05667278 31.5520405 27.92361473 31.44520925 -14.2094574 31.34298706 Z " fill="#586164" transform="translate(69.20945739746094,11.657012939453125)"/>
<path d="M0 0 C4.68963321 0.41468798 8.91873503 1.49366515 13.38957214 2.93592834 C21.51412124 5.53174954 29.6547105 7.73065281 38.0078125 9.45703125 C39.03536148 9.67001358 40.06291046 9.88299591 41.12159729 10.10243225 C54.44308485 12.78665237 67.90150454 14.5698335 81.36108398 16.40405273 C112.44884428 20.66943289 145.89122156 26.19306473 170 48 C170.84175781 48.73734375 171.68351563 49.4746875 172.55078125 50.234375 C186.5184203 63.20583949 193.12061151 80.92297458 194.15234375 99.78515625 C194.18189721 101.85718239 194.10348257 103.93034856 194 106 C191.92603035 108.07396965 187.48647669 107.18800915 184.62890625 107.203125 C183.76831604 107.21013931 182.90772583 107.21715363 182.02105713 107.22438049 C179.20148613 107.24206088 176.38212466 107.24824807 173.5625 107.25 C172.60483734 107.25067474 171.64717468 107.25134949 170.66049194 107.25204468 C128.15517892 107.2043445 83.94561885 99.89805452 49 74 C48.45182617 73.59700684 47.90365234 73.19401367 47.33886719 72.77880859 C25.80214514 56.82723647 4.78834809 34.07975437 -1 7 C-1.15234375 3.73046875 -1.15234375 3.73046875 -1 1 C-0.67 0.67 -0.34 0.34 0 0 Z " fill="#006FB0" transform="translate(127,175)"/>
<path d="M0 0 C3.77224786 1.21897966 7.42335339 2.55517205 11.0625 4.125 C45.90247128 18.71720606 79.14147633 24.14111417 116.67382812 26.70068359 C122.45216891 27.09615023 128.22595698 27.54638713 134 28 C132.69352679 37.91294279 130.97813113 47.68054722 128.99609375 57.48046875 C128.70960258 58.9105321 128.42339926 60.34065315 128.13746643 61.77082825 C127.54398209 64.73515527 126.94795735 67.69895517 126.34985352 70.66235352 C125.58369933 74.4588129 124.82274252 78.25629131 124.06347561 82.05413342 C123.47566788 84.99262905 122.88585943 87.93072007 122.29536629 90.86867714 C122.01382732 92.27002078 121.73274969 93.67145719 121.45214653 95.07298851 C121.06174864 97.02064627 120.66851473 98.96773491 120.27514648 100.91479492 C119.94111061 102.57353889 119.94111061 102.57353889 119.60032654 104.26579285 C119 107 119 107 118 110 C85.24131023 109.29344002 55.46130199 89.76347312 33.1484375 67.12109375 C31.34288125 65.14011616 29.66486482 63.10115015 28 61 C27.60345215 60.50467773 27.2069043 60.00935547 26.79833984 59.49902344 C13.20491491 42.34481621 1.93363354 22.11729146 0 0 Z " fill="#006287" transform="translate(182,288)"/>
</svg>
